<svg xmlns="http://www.w3.org/2000/svg" width="561.582" height="98.639" viewBox="0 0 561.582 98.639">
  <g id="Group_522" data-name="Group 522" transform="translate(-234 -182.361)">
    <path id="Path_175" data-name="Path 175" d="M629.969,32.333h27.578a1.257,1.257,0,0,1,1.257,1.256v2.882a3.769,3.769,0,0,1-3.769,3.769H629.37a10.935,10.935,0,0,0-10.934,10.936V68.1a3.771,3.771,0,0,1-3.771,3.771h-2.292a1.256,1.256,0,0,1-1.256-1.256V51.187a18.852,18.852,0,0,1,18.852-18.854m-.441,15.817h20.7a1.256,1.256,0,0,1,1.257,1.256v2.252a3.769,3.769,0,0,1-3.769,3.769h-20.7a1.255,1.255,0,0,1-1.256-1.256V51.919a3.769,3.769,0,0,1,3.772-3.769" transform="translate(118.561 176.254)" fill="#fff"/>
    <path id="Path_176" data-name="Path 176" d="M687.115,32.334h2.292a1.259,1.259,0,0,1,1.259,1.256V68.1a3.771,3.771,0,0,1-3.772,3.772H684.6a1.258,1.258,0,0,1-1.258-1.256V36.1a3.77,3.77,0,0,1,3.771-3.771" transform="translate(104.916 176.253)" fill="#fff"/>
    <path id="Path_177" data-name="Path 177" d="M252.923,64.011h25.713a3.8,3.8,0,0,1,3.8,3.8v2.9a1.266,1.266,0,0,1-1.266,1.264h-27.64A18.971,18.971,0,0,1,234.553,53V33.445a1.264,1.264,0,0,1,1.265-1.264h2.306a3.793,3.793,0,0,1,3.8,3.794V53.007a11,11,0,0,0,11,11" transform="translate(189.693 176.282)" fill="#fff"/>
    <path id="Path_178" data-name="Path 178" d="M164.966,32.3H199.7c6.563,0,11.88,5.949,11.88,12.509s-5.322,11.249-11.88,11.249h-28.04a.631.631,0,0,0-.629.629V68.118a3.774,3.774,0,0,1-3.774,3.776h-2.3a1.256,1.256,0,0,1-1.258-1.258V52.542a3.777,3.777,0,0,1,3.774-3.776H200.3a3.958,3.958,0,0,0,3.957-3.959c0-2.185-1.772-4.588-3.957-4.588H167.482a3.775,3.775,0,0,1-3.774-3.775V33.557a1.259,1.259,0,0,1,1.258-1.258" transform="translate(203.076 176.26)" fill="#fff"/>
    <path id="Path_179" data-name="Path 179" d="M569.793,40.392h-32.35c-2.162,0-3.915,2.377-3.915,4.541a3.917,3.917,0,0,0,3.915,3.918H562.4c6.494,0,11.755,4.639,11.755,11.131A11.753,11.753,0,0,1,562.4,71.734H528.141a1.246,1.246,0,0,1-1.245-1.245V67.635a3.738,3.738,0,0,1,3.739-3.737H562.98a3.918,3.918,0,1,0,0-7.835H538.028c-6.494,0-11.755-4.639-11.755-11.131s5.266-12.376,11.755-12.376h34.255a1.246,1.246,0,0,1,1.245,1.245v2.855a3.736,3.736,0,0,1-3.735,3.735" transform="translate(134.588 176.211)" fill="#fff"/>
    <path id="Path_180" data-name="Path 180" d="M374.863,32.441h42.869a1.253,1.253,0,0,1,1.256,1.251v2.87a3.755,3.755,0,0,1-3.757,3.752H399.315a.628.628,0,0,0-.625.628V68.052a3.75,3.75,0,0,1-3.753,3.754h-2.282a1.249,1.249,0,0,1-1.251-1.25V40.941a.626.626,0,0,0-.626-.628H372.362a1.249,1.249,0,0,1-1.251-1.251V36.2a3.753,3.753,0,0,1,3.752-3.755" transform="translate(163.896 176.233)" fill="#fff"/>
    <path id="Path_181" data-name="Path 181" d="M344.256,32.282h2.3a1.26,1.26,0,0,1,1.259,1.259V53.01A18.893,18.893,0,0,1,328.919,71.9H318.88A18.893,18.893,0,0,1,299.987,53.01V36.061a3.777,3.777,0,0,1,3.776-3.779h2.3a1.261,1.261,0,0,1,1.264,1.259V53.022a10.958,10.958,0,0,0,10.957,10.959h11.238a10.957,10.957,0,0,0,10.956-10.959V36.061a3.779,3.779,0,0,1,3.781-3.779" transform="translate(177.332 176.263)" fill="#fff"/>
    <path id="Path_182" data-name="Path 182" d="M492.993,32.282h2.3a1.26,1.26,0,0,1,1.259,1.259V53.01A18.893,18.893,0,0,1,477.656,71.9H467.617A18.893,18.893,0,0,1,448.724,53.01V36.061a3.777,3.777,0,0,1,3.776-3.779h2.3a1.261,1.261,0,0,1,1.264,1.259V53.022a10.958,10.958,0,0,0,10.957,10.959h11.238a10.957,10.957,0,0,0,10.956-10.959V36.061a3.779,3.779,0,0,1,3.781-3.779" transform="translate(149.236 176.263)" fill="#fff"/>
    <path id="Path_183" data-name="Path 183" d="M49.32,0A49.319,49.319,0,1,0,98.639,49.32,49.319,49.319,0,0,0,49.32,0m14.2,62.49-1.171,5.027a3.732,3.732,0,0,1-1.812,2.41l-6.348,3.552a.217.217,0,0,1-.324-.189V68.6a2.816,2.816,0,0,1,1.432-2.856l7.177-4.041a.715.715,0,0,1,1.046.785M71.169,44.21l-.992,3.925a5.776,5.776,0,0,1-2.687,3.577c-3.19,1.864-9.37,5.472-13.857,8.068V52.964a1.07,1.07,0,0,1,.526-.921l.112-.066c5.025-2.941,10.072-5.85,15.379-8.913a1.033,1.033,0,0,1,1.518,1.146M72.4,32.537c-8.169,4.729-12.317,6.973-20.441,11.776a12.988,12.988,0,0,0-6.378,12.125c.1,8.158.018,19.506.007,23.678.013.74-.384,1.021-1.6.667L39.422,79.49a1.081,1.081,0,0,1-.862-1.033s-.072-15.013-.157-23.6c-.019-1.944.029-10.837,7.208-15.07,5.12-2.93,10.209-5.915,15.311-8.877l.31-.182a1.445,1.445,0,0,0,.006-2.485c-1.17-.7-2.282-1.363-3.406-1.965a2.838,2.838,0,0,0-2.761-.151,1.515,1.515,0,0,0-.228.1c-.8.44-3.053,1.583-19.464,11.358-.977.527-3.87,2.3-6.131,1.638L25.325,38.2a1.455,1.455,0,0,1-.371-2.66C32.217,31.25,50.45,20.5,54.827,18.018a3.466,3.466,0,0,1,2.864,0c4.937,2.71,9.785,5.574,14.648,8.408,2.715,1.587,2.76,4.549.065,6.116" transform="translate(234 182.361)" fill="#fff"/>
    <rect id="Rectangle_70" data-name="Rectangle 70" width="561.582" height="98.639" transform="translate(234 182.361)" fill="none"/>
  </g>
</svg>
