<?xml version="1.0" standalone="no"?>
<svg xmlns:xlink="http://www.w3.org/1999/xlink" id="wave" style="transform:rotate(0deg); transition: 0.3s" viewBox="0 0 1440 420" version="1.1" xmlns="http://www.w3.org/2000/svg"><defs><linearGradient id="sw-gradient-0" x1="0" x2="0" y1="1" y2="0"><stop stop-color="rgba(115, 167, 245, 1)" offset="0%"/><stop stop-color="rgba(115, 167, 245, 1)" offset="100%"/></linearGradient></defs><path style="transform:translate(0, 0px); opacity:1" fill="url(#sw-gradient-0)" d="M0,84L26.7,105C53.3,126,107,168,160,189C213.3,210,267,210,320,231C373.3,252,427,294,480,294C533.3,294,587,252,640,245C693.3,238,747,266,800,252C853.3,238,907,182,960,147C1013.3,112,1067,98,1120,105C1173.3,112,1227,140,1280,133C1333.3,126,1387,84,1440,98C1493.3,112,1547,182,1600,231C1653.3,280,1707,308,1760,294C1813.3,280,1867,224,1920,210C1973.3,196,2027,224,2080,203C2133.3,182,2187,112,2240,70C2293.3,28,2347,14,2400,35C2453.3,56,2507,112,2560,140C2613.3,168,2667,168,2720,203C2773.3,238,2827,308,2880,329C2933.3,350,2987,322,3040,301C3093.3,280,3147,266,3200,245C3253.3,224,3307,196,3360,196C3413.3,196,3467,224,3520,217C3573.3,210,3627,168,3680,154C3733.3,140,3787,154,3813,161L3840,168L3840,420L3813.3,420C3786.7,420,3733,420,3680,420C3626.7,420,3573,420,3520,420C3466.7,420,3413,420,3360,420C3306.7,420,3253,420,3200,420C3146.7,420,3093,420,3040,420C2986.7,420,2933,420,2880,420C2826.7,420,2773,420,2720,420C2666.7,420,2613,420,2560,420C2506.7,420,2453,420,2400,420C2346.7,420,2293,420,2240,420C2186.7,420,2133,420,2080,420C2026.7,420,1973,420,1920,420C1866.7,420,1813,420,1760,420C1706.7,420,1653,420,1600,420C1546.7,420,1493,420,1440,420C1386.7,420,1333,420,1280,420C1226.7,420,1173,420,1120,420C1066.7,420,1013,420,960,420C906.7,420,853,420,800,420C746.7,420,693,420,640,420C586.7,420,533,420,480,420C426.7,420,373,420,320,420C266.7,420,213,420,160,420C106.7,420,53,420,27,420L0,420Z"/></svg>